<mxfile host="app.diagrams.net" agent="Mozilla/5.0 (Windows NT 10.0; Win64; x64) AppleWebKit/537.36 (KHTML, like Gecko) Chrome/130.0.0.0 Safari/537.36" version="24.8.3" pages="2">
  <diagram name="Page-1" id="Yt6A1MwHiMv8hcl6rjaD">
    <mxGraphModel dx="1050" dy="557" grid="1" gridSize="10" guides="1" tooltips="1" connect="1" arrows="1" fold="1" page="1" pageScale="1" pageWidth="850" pageHeight="1100" math="0" shadow="0">
      <root>
        <mxCell id="0" />
        <mxCell id="1" parent="0" />
        <mxCell id="sG7WwMjx3qqdlkonTWZo-1" style="edgeStyle=orthogonalEdgeStyle;rounded=0;orthogonalLoop=1;jettySize=auto;html=1;exitX=0.5;exitY=1;exitDx=0;exitDy=0;" parent="1" target="sG7WwMjx3qqdlkonTWZo-3" edge="1">
          <mxGeometry relative="1" as="geometry">
            <mxPoint x="410" y="80" as="sourcePoint" />
          </mxGeometry>
        </mxCell>
        <mxCell id="sG7WwMjx3qqdlkonTWZo-2" style="edgeStyle=orthogonalEdgeStyle;rounded=0;orthogonalLoop=1;jettySize=auto;html=1;exitX=0.5;exitY=1;exitDx=0;exitDy=0;" parent="1" source="sG7WwMjx3qqdlkonTWZo-3" target="sG7WwMjx3qqdlkonTWZo-5" edge="1">
          <mxGeometry relative="1" as="geometry" />
        </mxCell>
        <mxCell id="sG7WwMjx3qqdlkonTWZo-3" value="SETUP" style="rounded=0;whiteSpace=wrap;html=1;" parent="1" vertex="1">
          <mxGeometry x="350" y="100" width="120" height="60" as="geometry" />
        </mxCell>
        <mxCell id="sG7WwMjx3qqdlkonTWZo-4" style="edgeStyle=orthogonalEdgeStyle;rounded=0;orthogonalLoop=1;jettySize=auto;html=1;exitX=0.5;exitY=1;exitDx=0;exitDy=0;entryX=0.5;entryY=0;entryDx=0;entryDy=0;" parent="1" source="sG7WwMjx3qqdlkonTWZo-5" target="sG7WwMjx3qqdlkonTWZo-7" edge="1">
          <mxGeometry relative="1" as="geometry" />
        </mxCell>
        <mxCell id="sG7WwMjx3qqdlkonTWZo-5" value="LOOP" style="rounded=0;whiteSpace=wrap;html=1;" parent="1" vertex="1">
          <mxGeometry x="350" y="190" width="120" height="60" as="geometry" />
        </mxCell>
        <mxCell id="sG7WwMjx3qqdlkonTWZo-6" style="edgeStyle=orthogonalEdgeStyle;rounded=0;orthogonalLoop=1;jettySize=auto;html=1;exitX=0.5;exitY=1;exitDx=0;exitDy=0;entryX=0.5;entryY=0;entryDx=0;entryDy=0;" parent="1" source="sG7WwMjx3qqdlkonTWZo-7" target="sG7WwMjx3qqdlkonTWZo-16" edge="1">
          <mxGeometry relative="1" as="geometry" />
        </mxCell>
        <mxCell id="sG7WwMjx3qqdlkonTWZo-7" value="BACA SUHU&amp;nbsp;" style="rounded=0;whiteSpace=wrap;html=1;" parent="1" vertex="1">
          <mxGeometry x="350" y="280" width="120" height="60" as="geometry" />
        </mxCell>
        <mxCell id="sG7WwMjx3qqdlkonTWZo-8" style="edgeStyle=orthogonalEdgeStyle;rounded=0;orthogonalLoop=1;jettySize=auto;html=1;exitX=0.5;exitY=1;exitDx=0;exitDy=0;" parent="1" source="sG7WwMjx3qqdlkonTWZo-9" target="sG7WwMjx3qqdlkonTWZo-11" edge="1">
          <mxGeometry relative="1" as="geometry" />
        </mxCell>
        <mxCell id="sG7WwMjx3qqdlkonTWZo-9" value="CHECK&amp;nbsp;&lt;div&gt;ERROR&lt;/div&gt;&lt;div&gt;YES/NO&lt;/div&gt;" style="rhombus;whiteSpace=wrap;html=1;" parent="1" vertex="1">
          <mxGeometry x="365" y="450" width="90" height="80" as="geometry" />
        </mxCell>
        <mxCell id="sG7WwMjx3qqdlkonTWZo-20" style="edgeStyle=orthogonalEdgeStyle;rounded=0;orthogonalLoop=1;jettySize=auto;html=1;exitX=0.5;exitY=1;exitDx=0;exitDy=0;entryX=0.5;entryY=0;entryDx=0;entryDy=0;" parent="1" source="sG7WwMjx3qqdlkonTWZo-11" edge="1">
          <mxGeometry relative="1" as="geometry">
            <mxPoint x="410" y="620" as="targetPoint" />
          </mxGeometry>
        </mxCell>
        <mxCell id="sG7WwMjx3qqdlkonTWZo-11" value="TAMPILKAN DI&lt;div&gt;SERIAL MONITOR&lt;/div&gt;" style="rounded=0;whiteSpace=wrap;html=1;" parent="1" vertex="1">
          <mxGeometry x="350" y="540" width="120" height="60" as="geometry" />
        </mxCell>
        <mxCell id="sG7WwMjx3qqdlkonTWZo-12" style="edgeStyle=orthogonalEdgeStyle;rounded=0;orthogonalLoop=1;jettySize=auto;html=1;exitX=0.5;exitY=1;exitDx=0;exitDy=0;entryX=0.5;entryY=0;entryDx=0;entryDy=0;" parent="1" source="sG7WwMjx3qqdlkonTWZo-13" target="sG7WwMjx3qqdlkonTWZo-14" edge="1">
          <mxGeometry relative="1" as="geometry" />
        </mxCell>
        <mxCell id="sG7WwMjx3qqdlkonTWZo-13" value="DELAY" style="rounded=0;whiteSpace=wrap;html=1;" parent="1" vertex="1">
          <mxGeometry x="350" y="820" width="120" height="60" as="geometry" />
        </mxCell>
        <mxCell id="sG7WwMjx3qqdlkonTWZo-14" value="END" style="ellipse;whiteSpace=wrap;html=1;" parent="1" vertex="1">
          <mxGeometry x="350" y="910" width="120" height="80" as="geometry" />
        </mxCell>
        <mxCell id="sG7WwMjx3qqdlkonTWZo-15" style="edgeStyle=orthogonalEdgeStyle;rounded=0;orthogonalLoop=1;jettySize=auto;html=1;exitX=0.5;exitY=1;exitDx=0;exitDy=0;entryX=0.5;entryY=0;entryDx=0;entryDy=0;" parent="1" source="sG7WwMjx3qqdlkonTWZo-16" target="sG7WwMjx3qqdlkonTWZo-9" edge="1">
          <mxGeometry relative="1" as="geometry" />
        </mxCell>
        <mxCell id="sG7WwMjx3qqdlkonTWZo-16" value="BACA KELEMBABAN&amp;nbsp;" style="rounded=0;whiteSpace=wrap;html=1;" parent="1" vertex="1">
          <mxGeometry x="350" y="370" width="120" height="60" as="geometry" />
        </mxCell>
        <mxCell id="sG7WwMjx3qqdlkonTWZo-17" value="START" style="ellipse;whiteSpace=wrap;html=1;" parent="1" vertex="1">
          <mxGeometry x="350" width="120" height="80" as="geometry" />
        </mxCell>
        <mxCell id="sG7WwMjx3qqdlkonTWZo-27" style="edgeStyle=orthogonalEdgeStyle;rounded=0;orthogonalLoop=1;jettySize=auto;html=1;exitX=0.5;exitY=1;exitDx=0;exitDy=0;" parent="1" source="sG7WwMjx3qqdlkonTWZo-23" target="sG7WwMjx3qqdlkonTWZo-25" edge="1">
          <mxGeometry relative="1" as="geometry" />
        </mxCell>
        <mxCell id="sG7WwMjx3qqdlkonTWZo-23" value="SUHU &amp;gt; 25 DERAJAT" style="rhombus;whiteSpace=wrap;html=1;" parent="1" vertex="1">
          <mxGeometry x="365" y="620" width="90" height="80" as="geometry" />
        </mxCell>
        <mxCell id="sG7WwMjx3qqdlkonTWZo-28" style="edgeStyle=orthogonalEdgeStyle;rounded=0;orthogonalLoop=1;jettySize=auto;html=1;exitX=0.5;exitY=1;exitDx=0;exitDy=0;" parent="1" source="sG7WwMjx3qqdlkonTWZo-25" target="sG7WwMjx3qqdlkonTWZo-13" edge="1">
          <mxGeometry relative="1" as="geometry" />
        </mxCell>
        <mxCell id="sG7WwMjx3qqdlkonTWZo-25" value="NYALAKAN LED&lt;div&gt;YES/NO&lt;/div&gt;" style="rounded=0;whiteSpace=wrap;html=1;" parent="1" vertex="1">
          <mxGeometry x="350" y="730" width="120" height="60" as="geometry" />
        </mxCell>
      </root>
    </mxGraphModel>
  </diagram>
  <diagram id="hTv11JdUeE7Am7c8YPXX" name="Page-2">
    <mxGraphModel dx="1050" dy="557" grid="1" gridSize="10" guides="1" tooltips="1" connect="1" arrows="1" fold="1" page="1" pageScale="1" pageWidth="850" pageHeight="1100" math="0" shadow="0">
      <root>
        <mxCell id="0" />
        <mxCell id="1" parent="0" />
        <mxCell id="My0MVWueo69iZ22F9M9V-1" style="edgeStyle=orthogonalEdgeStyle;rounded=0;orthogonalLoop=1;jettySize=auto;html=1;exitX=0.5;exitY=1;exitDx=0;exitDy=0;" edge="1" parent="1" target="My0MVWueo69iZ22F9M9V-3">
          <mxGeometry relative="1" as="geometry">
            <mxPoint x="410" y="80" as="sourcePoint" />
          </mxGeometry>
        </mxCell>
        <mxCell id="My0MVWueo69iZ22F9M9V-2" style="edgeStyle=orthogonalEdgeStyle;rounded=0;orthogonalLoop=1;jettySize=auto;html=1;exitX=0.5;exitY=1;exitDx=0;exitDy=0;" edge="1" parent="1" source="My0MVWueo69iZ22F9M9V-3" target="My0MVWueo69iZ22F9M9V-5">
          <mxGeometry relative="1" as="geometry" />
        </mxCell>
        <mxCell id="My0MVWueo69iZ22F9M9V-3" value="SETUP" style="rounded=0;whiteSpace=wrap;html=1;" vertex="1" parent="1">
          <mxGeometry x="350" y="100" width="120" height="60" as="geometry" />
        </mxCell>
        <mxCell id="My0MVWueo69iZ22F9M9V-4" style="edgeStyle=orthogonalEdgeStyle;rounded=0;orthogonalLoop=1;jettySize=auto;html=1;exitX=0.5;exitY=1;exitDx=0;exitDy=0;entryX=0.5;entryY=0;entryDx=0;entryDy=0;" edge="1" parent="1" source="My0MVWueo69iZ22F9M9V-5" target="My0MVWueo69iZ22F9M9V-7">
          <mxGeometry relative="1" as="geometry" />
        </mxCell>
        <mxCell id="My0MVWueo69iZ22F9M9V-5" value="LOOP" style="rounded=0;whiteSpace=wrap;html=1;" vertex="1" parent="1">
          <mxGeometry x="350" y="190" width="120" height="60" as="geometry" />
        </mxCell>
        <mxCell id="My0MVWueo69iZ22F9M9V-6" style="edgeStyle=orthogonalEdgeStyle;rounded=0;orthogonalLoop=1;jettySize=auto;html=1;exitX=0.5;exitY=1;exitDx=0;exitDy=0;entryX=0.5;entryY=0;entryDx=0;entryDy=0;" edge="1" parent="1" source="My0MVWueo69iZ22F9M9V-7" target="My0MVWueo69iZ22F9M9V-16">
          <mxGeometry relative="1" as="geometry" />
        </mxCell>
        <mxCell id="My0MVWueo69iZ22F9M9V-7" value="BACA SUHU&amp;nbsp;" style="rounded=0;whiteSpace=wrap;html=1;" vertex="1" parent="1">
          <mxGeometry x="350" y="280" width="120" height="60" as="geometry" />
        </mxCell>
        <mxCell id="My0MVWueo69iZ22F9M9V-8" style="edgeStyle=orthogonalEdgeStyle;rounded=0;orthogonalLoop=1;jettySize=auto;html=1;exitX=0.5;exitY=1;exitDx=0;exitDy=0;" edge="1" parent="1" source="My0MVWueo69iZ22F9M9V-9">
          <mxGeometry relative="1" as="geometry">
            <mxPoint x="410" y="540" as="targetPoint" />
          </mxGeometry>
        </mxCell>
        <mxCell id="My0MVWueo69iZ22F9M9V-9" value="CHECK&amp;nbsp;&lt;div&gt;ERROR&lt;/div&gt;&lt;div&gt;YES/NO&lt;/div&gt;" style="rhombus;whiteSpace=wrap;html=1;" vertex="1" parent="1">
          <mxGeometry x="365" y="450" width="90" height="80" as="geometry" />
        </mxCell>
        <mxCell id="My0MVWueo69iZ22F9M9V-12" style="edgeStyle=orthogonalEdgeStyle;rounded=0;orthogonalLoop=1;jettySize=auto;html=1;exitX=0.5;exitY=1;exitDx=0;exitDy=0;entryX=0.5;entryY=0;entryDx=0;entryDy=0;" edge="1" parent="1" source="My0MVWueo69iZ22F9M9V-13" target="My0MVWueo69iZ22F9M9V-14">
          <mxGeometry relative="1" as="geometry" />
        </mxCell>
        <mxCell id="My0MVWueo69iZ22F9M9V-13" value="DELAY" style="rounded=0;whiteSpace=wrap;html=1;" vertex="1" parent="1">
          <mxGeometry x="350" y="800" width="120" height="60" as="geometry" />
        </mxCell>
        <mxCell id="My0MVWueo69iZ22F9M9V-14" value="END" style="ellipse;whiteSpace=wrap;html=1;" vertex="1" parent="1">
          <mxGeometry x="350" y="890" width="120" height="80" as="geometry" />
        </mxCell>
        <mxCell id="My0MVWueo69iZ22F9M9V-15" style="edgeStyle=orthogonalEdgeStyle;rounded=0;orthogonalLoop=1;jettySize=auto;html=1;exitX=0.5;exitY=1;exitDx=0;exitDy=0;entryX=0.5;entryY=0;entryDx=0;entryDy=0;" edge="1" parent="1" source="My0MVWueo69iZ22F9M9V-16" target="My0MVWueo69iZ22F9M9V-9">
          <mxGeometry relative="1" as="geometry" />
        </mxCell>
        <mxCell id="My0MVWueo69iZ22F9M9V-16" value="BACA KELEMBABAN&amp;nbsp;" style="rounded=0;whiteSpace=wrap;html=1;" vertex="1" parent="1">
          <mxGeometry x="350" y="370" width="120" height="60" as="geometry" />
        </mxCell>
        <mxCell id="My0MVWueo69iZ22F9M9V-17" value="START" style="ellipse;whiteSpace=wrap;html=1;" vertex="1" parent="1">
          <mxGeometry x="350" width="120" height="80" as="geometry" />
        </mxCell>
        <mxCell id="My0MVWueo69iZ22F9M9V-18" style="edgeStyle=orthogonalEdgeStyle;rounded=0;orthogonalLoop=1;jettySize=auto;html=1;exitX=0.5;exitY=1;exitDx=0;exitDy=0;entryX=0.5;entryY=0;entryDx=0;entryDy=0;" edge="1" parent="1" source="My0MVWueo69iZ22F9M9V-19" target="My0MVWueo69iZ22F9M9V-21">
          <mxGeometry relative="1" as="geometry" />
        </mxCell>
        <mxCell id="My0MVWueo69iZ22F9M9V-19" value="TAMPILKAN DI&lt;div&gt;LCD&lt;/div&gt;" style="rounded=0;whiteSpace=wrap;html=1;" vertex="1" parent="1">
          <mxGeometry x="350" y="540" width="120" height="60" as="geometry" />
        </mxCell>
        <mxCell id="My0MVWueo69iZ22F9M9V-20" style="edgeStyle=orthogonalEdgeStyle;rounded=0;orthogonalLoop=1;jettySize=auto;html=1;exitX=0.5;exitY=1;exitDx=0;exitDy=0;" edge="1" parent="1" source="My0MVWueo69iZ22F9M9V-21" target="My0MVWueo69iZ22F9M9V-23">
          <mxGeometry relative="1" as="geometry" />
        </mxCell>
        <mxCell id="My0MVWueo69iZ22F9M9V-21" value="SUHU &amp;gt; 25 DERAJAT" style="rhombus;whiteSpace=wrap;html=1;" vertex="1" parent="1">
          <mxGeometry x="365" y="620" width="90" height="80" as="geometry" />
        </mxCell>
        <mxCell id="My0MVWueo69iZ22F9M9V-22" style="edgeStyle=orthogonalEdgeStyle;rounded=0;orthogonalLoop=1;jettySize=auto;html=1;exitX=0.5;exitY=1;exitDx=0;exitDy=0;" edge="1" parent="1" source="My0MVWueo69iZ22F9M9V-23" target="My0MVWueo69iZ22F9M9V-13">
          <mxGeometry relative="1" as="geometry" />
        </mxCell>
        <mxCell id="My0MVWueo69iZ22F9M9V-23" value="NYALAKAN LED&lt;div&gt;YES/NO&lt;/div&gt;" style="rounded=0;whiteSpace=wrap;html=1;" vertex="1" parent="1">
          <mxGeometry x="350" y="720" width="120" height="60" as="geometry" />
        </mxCell>
      </root>
    </mxGraphModel>
  </diagram>
</mxfile>
